<?xml version="1.0" encoding="utf-8"?>
<!-- Generator: Adobe Illustrator 24.0.2, SVG Export Plug-In . SVG Version: 6.00 Build 0)  -->
<svg version="1.1" id="Layer_1" xmlns="http://www.w3.org/2000/svg" xmlns:xlink="http://www.w3.org/1999/xlink" x="0px" y="0px"
	 viewBox="0 0 20 20" style="enable-background:new 0 0 20 20;" xml:space="preserve">
<style type="text/css">
	.st0{fill:#FFFFFF;}
</style>
<path class="st0" d="M9.5,14.8C9.6,14.9,9.8,15,10,15c0.2,0,0.4-0.1,0.5-0.2c1.8-1.8,3.3-3.3,3.3-3.3c0.1-0.1,0.2-0.3,0.2-0.5
	c0-0.2-0.1-0.4-0.2-0.5c-0.3-0.3-0.8-0.3-1.1,0l-2,2V5.8C10.8,5.3,10.4,5,10,5S9.3,5.3,9.3,5.8v6.7l-2-2c-0.3-0.3-0.8-0.3-1.1,0
	C6.1,10.6,6,10.8,6,11c0,0.2,0.1,0.4,0.2,0.5C6.2,11.5,7.7,13,9.5,14.8z"/>
</svg>
